# Blender 4.0.0
# www.blender.org
mtllib treeBB.mtl
o Plane.001
v -3.815808 0.000000 -0.429514
v 3.815808 0.000000 -0.429514
v -3.815808 -0.000000 7.202102
v 3.815808 -0.000000 7.202102
v 0.000000 -3.815808 -0.429514
v -0.000000 3.815808 -0.429514
v 0.000000 -3.815808 7.202102
v 0.000000 3.815808 7.202102
v -3.460306 3.460306 3.386295
v 3.460306 3.460306 3.386295
v -3.460306 -3.460306 3.386292
v 3.460306 -3.460306 3.386292
v 2.538849 -2.538847 5.294199
v -2.538847 -2.538849 5.294199
v 2.538847 2.538849 5.294197
v -2.538849 2.538847 5.294197
vn -0.0000 -1.0000 -0.0000
vn 1.0000 -0.0000 -0.0000
vn -0.0000 -0.0000 -1.0000
vt 0.000000 0.000000
vt 0.482422 0.000000
vt 0.482422 1.000000
vt 0.000000 1.000000
vt 0.517766 0.000000
vt 1.000187 0.000000
vt 1.000187 1.000000
vt 0.517766 1.000000
s 0
usemtl Material
f 1/1/1 2/2/1 4/3/1 3/4/1
f 5/1/2 6/2/2 8/3/2 7/4/2
f 9/5/3 10/6/3 12/7/3 11/8/3
f 13/5/3 14/6/3 16/7/3 15/8/3
