# Blender 4.0.0
# www.blender.org
mtllib grass.mtl
o Plane_1.b
v -0.384413 -0.105367 0.000000
v 0.609323 -0.217117 0.000000
v -0.427457 -0.488135 0.922841
v 0.566279 -0.599885 0.922841
v 0.234605 -0.631941 0.000000
v 0.234605 0.468059 0.000000
v -0.294031 -0.631941 0.964647
v -0.294031 0.468059 0.964647
v 0.155920 -0.688924 0.000000
v -0.692608 0.159604 0.000000
v 0.548500 -0.296344 1.063843
v -0.300028 0.552184 1.063843
v -0.637255 -0.216871 0.000000
v 0.573349 0.256877 0.000000
v -0.826959 0.267896 1.191224
v 0.383645 0.741643 1.191224
vn -0.1031 -0.9171 -0.3852
vn 0.8770 -0.0000 0.4806
vn 0.6269 0.6269 -0.4627
vn 0.3339 -0.8533 0.4004
vt 0.000000 0.000000
vt 1.000000 0.000000
vt 1.000000 1.000000
vt 0.000000 1.000000
s 0
usemtl Material.001
f 1/1/1 2/2/1 4/3/1 3/4/1
f 5/1/2 6/2/2 8/3/2 7/4/2
f 9/1/3 10/2/3 12/3/3 11/4/3
f 13/1/4 14/2/4 16/3/4 15/4/4
