# Blender 4.0.0
# www.blender.org
mtllib grass.mtl
o Plane_1.5
v -0.500000 0.000000 0.000000
v 0.500000 0.000000 0.000000
v -0.500000 -0.385181 0.922841
v 0.500000 -0.385181 0.922841
v 0.104810 -0.512109 0.000000
v 0.104810 0.587891 0.000000
v -0.423826 -0.512109 0.964647
v -0.423826 0.587891 0.964647
v 0.366207 -0.452755 0.000000
v -0.482321 0.395773 0.000000
v 0.758787 -0.060175 1.063843
v -0.089741 0.788353 1.063843
v -0.419011 -0.445870 0.000000
v 0.500228 0.473369 0.000000
v -0.787105 -0.077776 1.191224
v 0.132134 0.841463 1.191224
vn -0.0000 -0.9228 -0.3852
vn 0.8770 -0.0000 0.4806
vn 0.6269 0.6269 -0.4627
vn 0.6479 -0.6479 0.4004
vt 0.000000 0.000000
vt 1.000000 0.000000
vt 1.000000 1.000000
vt 0.000000 1.000000
s 0
usemtl Material.001
f 1/1/1 2/2/1 4/3/1 3/4/1
f 5/1/2 6/2/2 8/3/2 7/4/2
f 9/1/3 10/2/3 12/3/3 11/4/3
f 13/1/4 14/2/4 16/3/4 15/4/4
