# Blender 4.0.0
# www.blender.org
mtllib test_box.mtl
o Cube
v -0.059703 -0.243532 0.000000
v -0.063818 -0.358842 0.106100
v -0.170380 -0.252029 0.106385
v -0.126639 -0.491159 1.328647
v -0.130919 -0.197698 1.800000
v -0.233178 -0.374098 1.392582
v -0.059703 0.243532 0.000000
v -0.170380 0.252029 0.106385
v -0.063818 0.358842 0.106100
v -0.130919 0.197698 1.800000
v -0.126639 0.491159 1.328647
v -0.233178 0.374098 1.392582
v 0.059703 -0.243532 0.000000
v 0.278017 -0.004436 0.375241
v 0.063818 -0.358842 0.106100
v 0.130919 -0.197698 1.800000
v 0.126639 -0.491159 1.328647
v 0.319540 -0.091896 1.424759
v 0.059703 0.243532 0.000000
v 0.063818 0.358842 0.106100
v 0.278017 0.004436 0.375241
v 0.130919 0.197698 1.800000
v 0.319540 0.091896 1.424759
v 0.126639 0.491159 1.328647
v 0.233178 0.193059 1.693615
v 0.170380 0.252029 0.106385
v 0.170380 -0.252029 0.106385
v 0.233178 -0.193059 1.693615
v -0.071823 -0.545440 0.887477
v -0.071823 -0.665853 1.019065
v -0.071823 -0.433921 0.518210
v -0.071823 -0.522224 1.283974
v 0.071823 -0.545440 0.887477
v 0.071823 -0.665853 1.019065
v 0.071823 -0.433921 0.518210
v 0.071823 -0.522224 1.283974
vn -0.0000 -0.9942 -0.1076
vn 0.9992 -0.0000 -0.0395
vn -0.0000 -0.0000 1.0000
vn -0.9988 -0.0000 -0.0488
vn -0.0000 0.9942 -0.1076
vn -0.5553 -0.5523 -0.6218
vn -0.5274 -0.7234 0.4456
vn -0.5553 0.5523 -0.6218
vn -0.5274 0.7234 0.4456
vn 0.5553 -0.5523 -0.6218
vn 0.5046 -0.7350 0.4530
vn 0.5553 0.5523 -0.6218
vn 0.5046 0.7350 0.4530
vn -0.6930 -0.0000 -0.7209
vn -0.7352 -0.6698 -0.1047
vn -0.9699 -0.0000 0.2434
vn -0.7352 0.6698 -0.1047
vn -0.0000 0.6771 -0.7359
vn -0.0000 0.8489 0.5285
vn 0.9022 0.4283 -0.0515
vn 0.6930 -0.0000 -0.7209
vn 0.7209 -0.0000 0.6930
vn 0.9022 -0.4283 -0.0515
vn -0.0000 -0.6771 -0.7359
vn -0.0000 -0.8489 0.5285
vn -0.0000 -0.0000 -1.0000
vn 0.8732 0.4857 -0.0398
vn 0.9284 -0.0000 -0.3717
vn 0.9521 -0.0000 0.3058
vn 0.8732 -0.4857 -0.0398
vn -1.0000 -0.0000 -0.0000
vn -0.0000 0.9934 0.1146
vn 1.0000 -0.0000 -0.0000
vn -0.0000 -0.7377 -0.6751
vn -0.0000 -0.9573 -0.2891
vn -0.0000 -0.8791 0.4766
vt 0.389736 0.827736
vt 0.610264 0.807592
vt 0.610264 0.942408
vt 0.389736 0.922264
vt 0.427117 0.623521
vt 0.572883 0.600956
vt 0.572883 0.649045
vt 0.427117 0.626479
vt 0.681062 0.526617
vt 0.818938 0.526617
vt 0.818938 0.723383
vt 0.681062 0.723383
vt 0.389776 0.036300
vt 0.610224 0.027835
vt 0.610224 0.222165
vt 0.389776 0.213700
vt 0.389736 0.327736
vt 0.610264 0.307592
vt 0.610264 0.442408
vt 0.389736 0.422264
vt 0.205089 0.711976
vt 0.201994 0.750000
vt 0.125000 0.715010
vt 0.609683 0.000000
vt 0.624416 0.026597
vt 0.205089 0.538024
vt 0.125000 0.534990
vt 0.201994 0.500000
vt 0.624416 0.223403
vt 0.609683 0.250000
vt 0.294911 0.711976
vt 0.375000 0.715010
vt 0.298006 0.750000
vt 0.623776 0.806044
vt 0.608998 0.750000
vt 0.294911 0.538024
vt 0.298006 0.500000
vt 0.375000 0.534990
vt 0.623776 0.443956
vt 0.608998 0.500000
vt 0.389156 0.000000
vt 0.625000 0.026617
vt 0.625000 0.223383
vt 0.625000 0.306062
vt 0.625000 0.443938
vt 0.610224 0.527835
vt 0.389776 0.536300
vt 0.389776 0.713700
vt 0.610224 0.722165
vt 0.625000 0.806062
vt 0.625000 0.943938
vt 0.375000 0.000000
vt 0.625000 0.000000
vt 0.625000 0.250000
vt 0.375000 0.250000
vt 0.625000 0.500000
vt 0.375000 0.500000
vt 0.625000 0.750000
vt 0.375000 0.750000
vt 0.625000 1.000000
vt 0.375000 1.000000
vt 0.125000 0.500000
vt 0.125000 0.750000
vt 0.875000 0.500000
vt 0.875000 0.750000
s 0
usemtl Material.001
f 15/1/1 17/2/1 4/3/1 2/4/1
f 21/5/2 23/6/2 18/7/2 14/8/2
f 22/9/3 10/10/3 5/11/3 16/12/3
f 3/13/4 6/14/4 12/15/4 8/16/4
f 9/17/5 11/18/5 24/19/5 20/20/5
f 1/21/6 2/22/6 3/23/6
f 4/24/7 5/25/7 6/14/7
f 7/26/8 8/27/8 9/28/8
f 10/29/9 11/30/9 12/15/9
f 13/31/10 27/32/10 15/33/10
f 16/34/11 17/2/11 28/35/11
f 19/36/12 20/37/12 26/38/12
f 22/39/13 25/40/13 24/19/13
f 7/26/14 1/21/14 3/23/14 8/27/14
f 2/41/15 4/24/15 6/14/15 3/13/15
f 5/42/16 10/43/16 12/15/16 6/14/16
f 11/18/17 9/17/17 8/16/17 12/15/17
f 19/36/18 7/26/18 9/28/18 20/37/18
f 10/44/19 22/45/19 24/19/19 11/18/19
f 25/46/20 26/47/20 20/20/20 24/19/20
f 13/31/21 19/36/21 26/47/21 27/48/21
f 22/9/22 16/12/22 28/49/22 25/46/22
f 17/2/23 15/1/23 27/48/23 28/49/23
f 1/21/24 13/31/24 15/33/24 2/22/24
f 16/50/25 5/51/25 4/3/25 17/2/25
f 7/26/26 19/36/26 13/31/26 1/21/26
f 23/6/27 21/5/27 26/47/27 25/46/27
f 21/5/28 14/8/28 27/48/28 26/47/28
f 18/7/29 23/6/29 25/46/29 28/49/29
f 14/8/30 18/7/30 28/49/30 27/48/30
f 29/52/31 30/53/31 32/54/31 31/55/31
f 31/55/32 32/54/32 36/56/32 35/57/32
f 35/57/33 36/56/33 34/58/33 33/59/33
f 33/59/34 34/58/34 30/60/34 29/61/34
f 31/62/35 35/57/35 33/59/35 29/63/35
f 36/56/36 32/64/36 30/65/36 34/58/36
